HIERARCHY
ROOT mixamorig:Hips
{
	OFFSET 0.000000 201.639420 0.000000
	CHANNELS 6 Xposition Yposition Zposition Xrotation Yrotation Zrotation
	JOINT mixamorig:Spine
	{
		OFFSET 0.006200 19.524994 -2.481800
		CHANNELS 3 Xrotation Yrotation Zrotation
		JOINT mixamorig:Spine1
		{
			OFFSET -0.000900 22.835007 -2.825400
			CHANNELS 3 Xrotation Yrotation Zrotation
			JOINT mixamorig:Spine2
			{
				OFFSET -0.020600 26.552490 -3.193300
				CHANNELS 3 Xrotation Yrotation Zrotation
				JOINT mixamorig:Neck
				{
					OFFSET -0.060000 30.701813 1.352200
					CHANNELS 3 Xrotation Yrotation Zrotation
					JOINT mixamorig:Head
					{
						OFFSET -0.087200 22.547607 3.670900
						CHANNELS 3 Xrotation Yrotation Zrotation
						JOINT mixamorig:HeadTop_End
						{
							OFFSET -0.830600 40.355194 7.893500
							CHANNELS 3 Xrotation Yrotation Zrotation
							End Site
							{
								OFFSET 0.000000 30.592346 0.000000
							}
						}
						JOINT mixamorig:RightEye
						{
							OFFSET -6.302100 18.118591 16.197100
							CHANNELS 3 Xrotation Yrotation Zrotation
							End Site
							{
								OFFSET 0.000000 30.592346 0.000000
							}
						}
						JOINT mixamorig:LeftEye
						{
							OFFSET 6.741500 18.382690 16.401899
							CHANNELS 3 Xrotation Yrotation Zrotation
							End Site
							{
								OFFSET 0.000000 30.592346 0.000000
							}
						}
					}
				}
				JOINT mixamorig:LeftShoulder
				{
					OFFSET 11.924900 18.230499 1.425400
					CHANNELS 3 Xrotation Yrotation Zrotation
					JOINT mixamorig:LeftArm
					{
						OFFSET 25.435989 -0.697632 -5.229300
						CHANNELS 3 Xrotation Yrotation Zrotation
						JOINT mixamorig:LeftForeArm
						{
							OFFSET 54.684776 0.000000 0.000000
							CHANNELS 3 Xrotation Yrotation Zrotation
							JOINT mixamorig:LeftHand
							{
								OFFSET 55.098175 0.000000 0.000000
								CHANNELS 3 Xrotation Yrotation Zrotation
								JOINT mixamorig:LeftHandMiddle1
								{
									OFFSET 23.369751 0.000000 0.000000
									CHANNELS 3 Xrotation Yrotation Zrotation
									JOINT mixamorig:LeftHandMiddle2
									{
										OFFSET 6.378677 0.000000 0.000000
										CHANNELS 3 Xrotation Yrotation Zrotation
										JOINT mixamorig:LeftHandMiddle3
										{
											OFFSET 6.148331 0.000000 0.000000
											CHANNELS 3 Xrotation Yrotation Zrotation
											JOINT mixamorig:LeftHandMiddle4
											{
												OFFSET 6.582504 0.000000 0.000000
												CHANNELS 3 Xrotation Yrotation Zrotation
												End Site
												{
													OFFSET -1.168900 6.395691 1.028606
												}
											}
										}
									}
								}
								JOINT mixamorig:LeftHandThumb1
								{
									OFFSET 7.235672 -3.848206 5.434273
									CHANNELS 3 Xrotation Yrotation Zrotation
									JOINT mixamorig:LeftHandThumb2
									{
										OFFSET 6.568451 -3.792297 3.792300
										CHANNELS 3 Xrotation Yrotation Zrotation
										JOINT mixamorig:LeftHandThumb3
										{
											OFFSET 6.063080 -3.500519 3.500518
											CHANNELS 3 Xrotation Yrotation Zrotation
											JOINT mixamorig:LeftHandThumb4
											{
												OFFSET 4.793182 -2.767334 2.767349
												CHANNELS 3 Xrotation Yrotation Zrotation
												End Site
												{
													OFFSET 0.101639 6.054260 1.275483
												}
											}
										}
									}
								}
								JOINT mixamorig:LeftHandIndex1
								{
									OFFSET 23.101074 -0.309540 4.992809
									CHANNELS 3 Xrotation Yrotation Zrotation
									JOINT mixamorig:LeftHandIndex2
									{
										OFFSET 6.226883 0.000000 0.000000
										CHANNELS 3 Xrotation Yrotation Zrotation
										JOINT mixamorig:LeftHandIndex3
										{
											OFFSET 6.094330 0.000000 0.000000
											CHANNELS 3 Xrotation Yrotation Zrotation
											JOINT mixamorig:LeftHandIndex4
											{
												OFFSET 5.482605 0.000000 0.000000
												CHANNELS 3 Xrotation Yrotation Zrotation
												End Site
												{
													OFFSET -1.427902 5.233032 0.797164
												}
											}
										}
									}
								}
								JOINT mixamorig:LeftHandRing1
								{
									OFFSET 22.299240 0.021149 -3.964172
									CHANNELS 3 Xrotation Yrotation Zrotation
									JOINT mixamorig:LeftHandRing2
									{
										OFFSET 6.321869 0.000000 0.000000
										CHANNELS 3 Xrotation Yrotation Zrotation
										JOINT mixamorig:LeftHandRing3
										{
											OFFSET 5.899796 0.000000 0.000000
											CHANNELS 3 Xrotation Yrotation Zrotation
											JOINT mixamorig:LeftHandRing4
											{
												OFFSET 6.517899 0.000000 0.000000
												CHANNELS 3 Xrotation Yrotation Zrotation
												End Site
												{
													OFFSET -1.637299 6.232208 0.980890
												}
											}
										}
									}
								}
								JOINT mixamorig:LeftHandPinky1
								{
									OFFSET 20.463791 -0.302338 -8.562233
									CHANNELS 3 Xrotation Yrotation Zrotation
									JOINT mixamorig:LeftHandPinky2
									{
										OFFSET 6.908646 0.000000 0.000000
										CHANNELS 3 Xrotation Yrotation Zrotation
										JOINT mixamorig:LeftHandPinky3
										{
											OFFSET 4.622849 0.000000 0.000000
											CHANNELS 3 Xrotation Yrotation Zrotation
											JOINT mixamorig:LeftHandPinky4
											{
												OFFSET 5.216080 0.000000 0.000000
												CHANNELS 3 Xrotation Yrotation Zrotation
												End Site
												{
													OFFSET -0.606308 5.116241 0.814926
												}
											}
										}
									}
								}
							}
						}
					}
				}
				JOINT mixamorig:RightShoulder
				{
					OFFSET -12.001300 18.284088 1.348900
					CHANNELS 3 Xrotation Yrotation Zrotation
					JOINT mixamorig:RightArm
					{
						OFFSET -25.308500 -0.751312 -5.164599
						CHANNELS 3 Xrotation Yrotation Zrotation
						JOINT mixamorig:RightForeArm
						{
							OFFSET -54.684429 0.000000 0.000000
							CHANNELS 3 Xrotation Yrotation Zrotation
							JOINT mixamorig:RightHand
							{
								OFFSET -55.150291 0.000000 0.000000
								CHANNELS 3 Xrotation Yrotation Zrotation
								JOINT mixamorig:RightHandMiddle1
								{
									OFFSET -23.317566 0.000000 0.000000
									CHANNELS 3 Xrotation Yrotation Zrotation
									JOINT mixamorig:RightHandMiddle2
									{
										OFFSET -6.378403 0.000000 0.000000
										CHANNELS 3 Xrotation Yrotation Zrotation
										JOINT mixamorig:RightHandMiddle3
										{
											OFFSET -6.148193 0.000000 0.000000
											CHANNELS 3 Xrotation Yrotation Zrotation
											JOINT mixamorig:RightHandMiddle4
											{
												OFFSET -6.583389 0.000000 0.000000
												CHANNELS 3 Xrotation Yrotation Zrotation
												End Site
												{
													OFFSET 1.171692 6.395905 1.029786
												}
											}
										}
									}
								}
								JOINT mixamorig:RightHandThumb1
								{
									OFFSET -7.190521 -3.860474 5.435846
									CHANNELS 3 Xrotation Yrotation Zrotation
									JOINT mixamorig:RightHandThumb2
									{
										OFFSET -6.567429 -3.791718 3.791708
										CHANNELS 3 Xrotation Yrotation Zrotation
										JOINT mixamorig:RightHandThumb3
										{
											OFFSET -6.062469 -3.500153 3.500166
											CHANNELS 3 Xrotation Yrotation Zrotation
											JOINT mixamorig:RightHandThumb4
											{
												OFFSET -4.792618 -2.767029 2.767022
												CHANNELS 3 Xrotation Yrotation Zrotation
												End Site
												{
													OFFSET -0.100327 6.053253 1.276754
												}
											}
										}
									}
								}
								JOINT mixamorig:RightHandIndex1
								{
									OFFSET -23.048981 -0.310791 4.992554
									CHANNELS 3 Xrotation Yrotation Zrotation
									JOINT mixamorig:RightHandIndex2
									{
										OFFSET -6.227539 0.000000 0.000000
										CHANNELS 3 Xrotation Yrotation Zrotation
										JOINT mixamorig:RightHandIndex3
										{
											OFFSET -6.095047 0.000000 0.000000
											CHANNELS 3 Xrotation Yrotation Zrotation
											JOINT mixamorig:RightHandIndex4
											{
												OFFSET -5.484772 0.000000 0.000000
												CHANNELS 3 Xrotation Yrotation Zrotation
												End Site
												{
													OFFSET 1.420593 5.237305 0.797056
												}
											}
										}
									}
								}
								JOINT mixamorig:RightHandRing1
								{
									OFFSET -22.246323 0.020569 -3.963762
									CHANNELS 3 Xrotation Yrotation Zrotation
									JOINT mixamorig:RightHandRing2
									{
										OFFSET -6.322128 0.000000 0.000000
										CHANNELS 3 Xrotation Yrotation Zrotation
										JOINT mixamorig:RightHandRing3
										{
											OFFSET -5.900024 0.000000 0.000000
											CHANNELS 3 Xrotation Yrotation Zrotation
											JOINT mixamorig:RightHandRing4
											{
												OFFSET -6.518356 0.000000 0.000000
												CHANNELS 3 Xrotation Yrotation Zrotation
												End Site
												{
													OFFSET 1.636398 6.232697 0.982186
												}
											}
										}
									}
								}
								JOINT mixamorig:RightHandPinky1
								{
									OFFSET -20.411011 -0.303314 -8.561701
									CHANNELS 3 Xrotation Yrotation Zrotation
									JOINT mixamorig:RightHandPinky2
									{
										OFFSET -6.907349 0.000000 0.000000
										CHANNELS 3 Xrotation Yrotation Zrotation
										JOINT mixamorig:RightHandPinky3
										{
											OFFSET -4.623840 0.000000 0.000000
											CHANNELS 3 Xrotation Yrotation Zrotation
											JOINT mixamorig:RightHandPinky4
											{
												OFFSET -5.218353 0.000000 0.000000
												CHANNELS 3 Xrotation Yrotation Zrotation
												End Site
												{
													OFFSET 0.602097 5.118835 0.816273
												}
											}
										}
									}
								}
							}
						}
					}
				}
			}
		}
	}
	JOINT mixamorig:LeftUpLeg
	{
		OFFSET 18.168400 -13.561905 -0.039000
		CHANNELS 3 Xrotation Yrotation Zrotation
		JOINT mixamorig:LeftLeg
		{
			OFFSET 0.577358 -80.825211 -3.695000
			CHANNELS 3 Xrotation Yrotation Zrotation
			JOINT mixamorig:LeftFoot
			{
				OFFSET -0.577356 -83.370262 -6.520700
				CHANNELS 3 Xrotation Yrotation Zrotation
				JOINT mixamorig:LeftToeBase
				{
					OFFSET 0.750401 -20.798306 25.135401
					CHANNELS 3 Xrotation Yrotation Zrotation
					JOINT mixamorig:LeftToe_End
					{
						OFFSET -0.000500 0.001200 19.917799
						CHANNELS 3 Xrotation Yrotation Zrotation
						End Site
						{
							OFFSET 0.000000 19.917805 0.000000
						}
					}
				}
			}
		}
	}
	JOINT mixamorig:RightUpLeg
	{
		OFFSET -18.162500 -13.585098 -0.041000
		CHANNELS 3 Xrotation Yrotation Zrotation
		JOINT mixamorig:RightLeg
		{
			OFFSET -0.595024 -80.945297 -3.631900
			CHANNELS 3 Xrotation Yrotation Zrotation
			JOINT mixamorig:RightFoot
			{
				OFFSET 0.595024 -83.218193 -6.561200
				CHANNELS 3 Xrotation Yrotation Zrotation
				JOINT mixamorig:RightToeBase
				{
					OFFSET -0.753601 -20.807106 25.115000
					CHANNELS 3 Xrotation Yrotation Zrotation
					JOINT mixamorig:RightToe_End
					{
						OFFSET 0.000299 0.001700 19.918200
						CHANNELS 3 Xrotation Yrotation Zrotation
						End Site
						{
							OFFSET 0.000000 19.918203 0.000000
						}
					}
				}
			}
		}
	}
}
MOTION
Frames: 4
Frame Time: 0.033333
-80.310776 192.168411 4.979305 -16.867246 -37.612253 -11.205425 9.282759 -0.094348 -0.682891 16.036987 -0.318434 -1.011608 16.046604 -0.506767 -0.858335 0.216580 7.718271 -0.158969 -6.736361 21.697947 9.849094 -0.000001 0.000000 -0.000001 -0.000001 0.000000 -0.000001 -0.000001 0.000000 -0.000001 -37.558203 -6.273587 2.328624 -45.525939 -6.082275 -60.456135 0.000000 -63.185397 0.000008 -118.146126 3.398841 34.198371 0.670934 5.759951 -53.510161 3.393338 5.311469 -65.124467 0.282015 1.797444 -17.832374 -0.000001 0.000002 -0.000000 4.709209 9.560374 3.111989 19.807627 0.168701 7.975327 -4.766883 -10.223072 1.764284 0.000000 -0.000002 -0.000000 0.001930 4.255354 -37.305325 2.928139 5.070875 -59.986430 0.507643 2.387324 -24.005864 -0.000008 -0.000000 -0.000003 -0.232410 5.685979 -61.540790 4.086178 5.579427 -72.415462 0.596645 2.577729 -26.060652 -0.000002 -0.000002 -0.000001 -6.215709 4.964699 -73.950745 3.327195 5.280443 -64.407653 0.183372 1.455724 -14.358333 -0.000001 -0.000001 -0.000000 -41.167299 -8.522836 -9.905412 -52.041824 56.704497 104.513458 -0.000483 96.836339 0.000606 -53.434083 -16.112030 -30.463935 3.300361 -7.054822 52.716479 6.301949 -4.357668 110.702313 0.248721 -1.503070 18.790257 0.000001 -0.000000 -0.000001 7.981463 -4.293999 10.970695 22.369501 -17.177226 -18.702433 -0.998271 -49.853725 -32.849836 0.000000 -0.000001 -0.000001 -1.056135 2.042780 13.049982 0.742318 -2.524479 32.766897 0.609802 -2.305847 29.623220 0.000001 -0.000000 -0.000002 -3.166064 -2.781961 57.474006 5.466006 -4.586564 100.012206 1.709097 -3.606873 50.696102 -0.000001 0.000000 -0.000001 -4.249306 -3.415239 66.149583 4.085141 -4.621983 82.937054 2.338146 -4.039846 60.108649 0.000000 -0.000001 -0.000000 -26.515580 39.533726 26.761072 33.467958 3.838597 -2.084763 -4.508231 0.434024 3.293056 -2.213953 -0.000000 0.000001 -0.000000 -0.000000 -0.000000 1.027127 3.610187 -10.117631 29.874995 3.239069 0.492318 -14.620481 -18.683540 10.936661 -1.067821 0.000001 0.000002 -0.000000 0.000001 -0.000000 
-82.592224 192.205536 3.289978 -16.690226 -37.711937 -11.116333 9.208269 -0.142144 -0.620877 16.086697 -0.319001 -1.007071 16.093492 -0.508101 -0.873745 0.223952 7.732346 -0.069614 -6.785398 21.685297 10.020733 -0.000003 -0.000001 0.000002 -0.000003 -0.000001 0.000002 -0.000003 -0.000001 0.000002 -37.554364 -6.214071 2.282310 -45.370908 -6.460500 -60.290408 -0.000073 -63.162010 -0.000067 -118.198637 3.207303 34.084533 0.647188 5.719347 -53.028650 3.393318 5.311459 -65.124030 0.282023 1.797447 -17.832379 0.000002 -0.000000 0.000004 4.709209 9.560380 3.111990 19.876108 0.481882 7.823034 -4.585961 -10.216104 1.707962 -0.000002 0.000001 -0.000002 -0.053839 4.153215 -36.843966 2.929453 5.071618 -60.001224 0.508156 2.388493 -24.018364 -0.000002 0.000001 0.000002 -0.183588 5.681633 -61.128848 4.087908 5.579980 -72.433309 0.597552 2.579579 -26.080744 -0.000000 -0.000002 0.000000 -6.526973 4.714335 -73.180361 3.303195 5.268922 -64.146562 0.176329 1.427951 -14.078422 -0.000004 -0.000001 0.000002 -41.147228 -8.741522 -9.902323 -52.073386 56.849693 104.605829 -0.000668 96.660284 0.000741 -53.436316 -15.750435 -30.093311 3.255377 -7.039279 52.231812 6.301936 -4.357662 110.701951 0.248721 -1.503070 18.790260 0.000002 0.000001 -0.000000 7.845158 -4.083323 10.953393 22.482968 -17.161873 -18.838264 -0.670053 -49.817593 -32.500130 0.000002 -0.000002 0.000000 -1.001595 2.003375 12.577419 0.742743 -2.525119 32.776367 0.610315 -2.306714 29.635631 0.000002 -0.000000 0.000000 -3.239421 -2.680290 57.069878 5.467633 -4.586252 100.032608 1.710375 -3.607900 50.716265 -0.000001 0.000000 0.000002 -3.991385 -3.416486 65.357438 4.062028 -4.619064 82.650220 2.318339 -4.028382 59.826986 -0.000001 -0.000001 -0.000001 -27.267982 39.490812 27.850540 32.873011 3.376307 -1.841504 -3.453424 0.519299 2.616365 -2.108547 0.000002 -0.000002 -0.000000 0.000002 0.000000 0.283868 4.361895 -8.542757 31.285333 1.695181 -0.022598 -15.388973 -18.508833 9.925490 -0.721032 -0.000001 -0.000002 -0.000000 -0.000001 -0.000000 
-84.785782 192.233612 1.942104 -16.519466 -37.808751 -11.011716 9.131469 -0.198136 -0.525433 16.133281 -0.319197 -0.993189 16.137551 -0.505565 -0.878088 0.232122 7.728800 0.017329 -6.832035 21.671757 10.195587 0.000000 0.000001 -0.000002 0.000000 0.000001 -0.000002 0.000000 0.000001 -0.000002 -37.562560 -6.024944 2.133506 -45.170695 -6.530405 -60.396945 -0.000065 -63.716376 -0.000073 -117.962899 3.001428 34.341245 0.642892 5.701859 -52.730307 3.391507 5.310621 -65.104530 0.282018 1.797447 -17.832374 -0.000004 -0.000001 0.000000 4.709212 9.560381 3.111990 19.884716 0.525992 7.699758 -4.450905 -10.155365 1.647151 0.000002 0.000001 -0.000002 -0.106432 4.067242 -36.603940 2.930793 5.072391 -60.016339 0.508681 2.389639 -24.030757 0.000001 0.000001 -0.000002 -0.109976 5.706380 -60.912986 4.086555 5.579550 -72.419314 0.597045 2.578538 -26.069577 -0.000002 0.000003 -0.000001 -6.786691 4.511572 -72.601708 3.290003 5.262552 -64.002855 0.172337 1.411907 -13.917021 0.000002 -0.000001 0.000002 -41.097368 -8.828842 -9.810041 -51.648801 57.282310 103.981468 -0.000898 97.014354 0.000925 -53.721313 -15.466484 -30.154575 3.217429 -7.021502 51.931653 6.300447 -4.358237 110.682512 0.248721 -1.503071 18.790260 0.000001 0.000000 0.000001 7.799286 -4.012346 10.947612 22.488220 -17.240127 -18.896198 -0.435895 -49.790942 -32.250405 -0.000001 -0.000001 -0.000002 -0.962230 1.931666 12.324468 0.743144 -2.525761 32.785519 0.610817 -2.307591 29.647946 0.000001 -0.000000 -0.000001 -3.323897 -2.596398 56.861458 5.466751 -4.586417 100.021639 1.709660 -3.607331 50.705029 -0.000001 0.000000 -0.000002 -3.770545 -3.435086 64.758854 4.048658 -4.617333 82.484172 2.306935 -4.021779 59.664585 0.000000 -0.000001 0.000001 -27.823631 39.443560 28.821496 32.284856 2.810386 -1.725447 -2.526554 0.738894 2.002576 -1.650835 0.000000 0.000004 0.000000 0.000000 0.000000 -0.263232 4.648943 -7.519323 32.246348 1.071382 -0.004731 -16.171497 -18.339649 9.153293 -0.638413 0.000038 0.000002 -0.000000 0.000000 0.000000 
-86.891991 192.378479 0.782688 -16.346466 -37.910606 -10.860214 9.048361 -0.262612 -0.432440 16.175604 -0.322275 -0.974694 16.177754 -0.501219 -0.878734 0.240918 7.726111 0.105179 -6.874570 21.657516 10.373795 -0.000001 0.000001 -0.000000 -0.000001 0.000001 -0.000000 -0.000001 0.000001 -0.000000 -37.575886 -5.776682 1.894499 -44.928554 -6.459703 -60.588450 -0.000053 -64.460976 -0.000053 -117.626950 2.838284 34.668333 0.610607 5.662627 -52.425680 3.388060 5.309039 -65.067503 0.282015 1.797446 -17.832376 -0.000001 -0.000001 0.000002 4.709211 9.560379 3.111990 19.858172 0.394232 7.605357 -4.364477 -10.071411 1.592982 0.000002 0.000001 0.000000 -0.141080 4.008229 -36.420283 2.932037 5.073115 -60.030697 0.509191 2.390804 -24.043096 -0.000003 0.000000 -0.000002 -0.051661 5.727207 -60.751377 4.082281 5.578208 -72.375458 0.595188 2.574740 -26.028058 -0.000001 0.000001 -0.000003 -6.900735 4.382664 -72.171925 3.276789 5.256094 -63.858738 0.168620 1.396882 -13.765879 0.000003 0.000001 -0.000001 -41.081009 -8.762342 -9.762189 -50.954738 57.768804 103.108597 0.000571 97.535436 -0.000498 -53.992628 -15.188568 -30.373428 3.206469 -7.024879 51.624834 6.297649 -4.359261 110.645465 0.248722 -1.503071 18.790262 0.000000 -0.000000 -0.000001 7.812505 -4.032799 10.949145 22.419722 -17.374149 -18.895790 -0.294111 -49.774447 -32.099061 -0.000001 0.000001 -0.000001 -0.935037 1.887629 12.132364 0.743590 -2.526452 32.795860 0.611282 -2.308483 29.660271 0.000002 -0.000000 -0.000001 -3.390097 -2.531070 56.705798 5.463422 -4.587018 99.980138 1.707077 -3.605166 50.663376 -0.000001 0.000000 -0.000004 -3.682609 -3.416092 64.317678 4.036301 -4.615689 82.330629 2.296269 -4.015523 59.512531 0.000000 -0.000002 0.000001 -28.093326 39.638180 29.884396 31.347795 2.304530 -2.143194 -1.520143 0.647507 1.690567 -1.193143 0.000004 -0.000001 -0.000000 -0.000001 -0.000000 -0.686498 4.399599 -6.931861 32.791335 1.071017 0.358560 -16.817973 -18.060600 8.092081 -0.601278 0.000010 0.000002 -0.000000 -0.000002 -0.000000 
